<svg version="1.1" id="Layer_1" xmlns="http://www.w3.org/2000/svg" xmlns:xlink="http://www.w3.org/1999/xlink" x="0" y="0" viewBox="0 0 296 209.7" xml:space="preserve"><style>.st0{fill:#52e4d0}.st1{fill-rule:evenodd;clip-rule:evenodd;fill:#20377d}.st2{fill:#e6e6e5}.st3{fill:#325097}.st5{fill:#fec514}.st7{fill:#ffa0d6}.st9{fill-rule:evenodd;clip-rule:evenodd;fill:#7de2d1}.st11{fill:#fff}.st12{fill:#264482}.st21{fill:#0d8ee0}.st22{fill:none;stroke:#20377d;stroke-width:1.6711;stroke-miterlimit:10;stroke-dasharray:6.2667}.st23{fill:#48d3bc}.st48{fill:#f9b110}</style><path class="st0" d="M285 86v104H150z"/><path class="st1" d="M276 160c0 3-1 4-3 4-3 0-4-1-4-4 0-2 1-3 4-3 2 0 3 1 3 3zM276 142c0 3-1 4-3 4-3 0-4-1-4-4 0-2 1-3 4-3 2 0 3 1 3 3zM295 160c0 3-2 4-4 4s-4-1-4-4c0-2 2-3 4-3s4 1 4 3z"/><path class="st2" d="M58 22h106v77H58zM51 130h77v49H51z"/><path id="XMLID_17_" class="st3" d="M62 70l75-48H38v35c0 12 13 19 24 13z"/><circle cx="57" cy="4.1" r="4.1" fill="#ff87c7"/><circle class="st5" cx="72.2" cy="4.3" r="4.1"/><circle class="st0" cx="88" cy="4.3" r="4.1"/><circle class="st2" cx="60" cy="120.4" r="2.5"/><circle class="st2" cx="69.2" cy="120.5" r="2.5"/><circle class="st2" cx="78.9" cy="120.5" r="2.5"/><path d="M266 43h-82c-2 0-4-1-4-4 0-2 2-4 4-4h82c3 0 4 2 4 4 0 3-1 4-4 4z" fill="#00a9fb"/><path class="st7" d="M241 64h-34c-3 0-4-2-4-4s1-4 4-4h34c2 0 4 2 4 4 0 3-2 4-4 4z"/><path d="M206 64c-3 0-4-2-4-4s1-4 4-4c2 0 4 2 4 4s-2 4-4 4z" fill="#ff6a40"/><path class="st3" d="M184 64c-2 0-4-2-4-4s2-4 4-4 4 2 4 4-2 4-4 4z"/><path class="st7" d="M260 64c-2 0-4-2-4-4s2-4 4-4 4 2 4 4-2 4-4 4z"/><path class="st3" d="M163 64c-2 0-4-2-4-4s2-4 4-4c3 0 4 2 4 4s-1 4-4 4zM144 64c-2 0-4-2-4-4s2-4 4-4 4 2 4 4-2 4-4 4z"/><path class="st2" d="M238 22c-2 0-4-2-4-4s2-4 4-4 4 2 4 4-2 4-4 4zM219 22c-2 0-4-2-4-4s2-4 4-4c3 0 4 2 4 4s-1 4-4 4zM199 22c-3 0-4-2-4-4s1-4 4-4c2 0 4 2 4 4s-2 4-4 4z"/><g><path class="st9" d="M18 152h37v8H18zM18 135h47v8H18z"/><path fill-rule="evenodd" clip-rule="evenodd" fill="#fec514" d="M0 135h8v8H0z"/></g><path class="st3" d="M149 85h109v79H149z"/><path class="st11" d="M258 164H149l109-79"/><g><path class="st12" d="M181 87l-1 1h2l-1-1zM191 85zM181 90h-1l1 1v-1zM186 87v1h1l-1-1zM178 89v1h1l-1-1zM189 86h0zM189 88zM191 87zM181 92zM190 85h-1 1zM188 89h0zM173 90h0zM183 86v-1c1 0 0 0 0 0h-1c1 0 0 0 0 0v1h1zM179 88v0zM189 85h-1 1zM178 85v1h1v1l1-1h-1l1-1h-3 1zM180 89v-1l-1 1 1 1v-1zM181 85v1h1l-1-1zM187 85h-1 1zM184 88h-1s0 1 0 0h1zM183 91h-1 1zM178 88h1l-1-1v1zM184 90v1h1v-1h-1zM180 85h2-2z"/><path class="st12" d="M182 87h-1l1 1v-1zM179 88h1v-1l-1 1zM188 85h-1v1l1-1zM188 86v0zM176 91zM174 85zM187 90v0zM183 90h-1 1zM178 92h1-1zM185 85h-1 1zM184 86v0zM183 87v-1l-1 1h1zM184 85h-1 1zM184 88h0zM183 90h0zM190 85h0zM169 87c0-1 0 0 0 0zM188 88zM180 91v0zM187 90zM186 87h1v-1h-1-1c0-1 0 0 0 0v1h1zM174 87v1h1v-1-1h-1v1zM176 86zM180 87v-1 1zM170 91l-1-1v1h1zM172 87h1v-1h-1v1zM156 85v1h1-1v3h-1l1 1v-1h1v1h-1l1 1h1v-1h1v-1h-1l-1-1v-1h1v-1h1v1h-1v1h2v-1 1h1v0h1v1l1-1h1l-1-1s0-1 0 0l-1 1v-1l-1-1h-1v-1l-1 1c0-1 0-1 0 0l-1-1h1-4 1zM170 93h-1l1 1v-1zM174 90v1h1v-1h-1zM166 90v-1h-1v1h1zM165 93h-1 1zM167 93v1l1-1h-1zM180 85h-1 1zM178 88v0l-1 1h1v-1zM177 90v1l1-1h-1zM170 95zM178 87zM177 92v-1 1zM162 94s1 0 0 0zM168 85v1h3l1-1h-4zM171 88v-1-1l-1 1 1 1-1 1h1v-1h0zM175 86l1-1h1-2v1zM167 92h0zM160 92h-1 1zM166 89l1 1v-1l1-1h-1s-1 0 0 0h-1v1zM166 87h1c-1 0-1 0 0 0v-1s0-1 0 0l-1 1zM166 87h-1v1h1v-1zM169 92h-1l1 1v-1zM170 89h-1 1zM163 92v1h1v-1h-1zM171 91h1l-1-1v1zM165 91v-1l-1 1h1zM166 93l-1 1h1v-1zM172 94h-1 1zM166 92c-1 0-1 0 0 0zM167 91h-1 1zM173 93v1l1-1h-1zM168 88h2v-1h-1v0h-1v1zM178 86v-1h-1v1h-1v2l1-1v-1h1zM165 86l-1-1v2h1v-1zM170 90v1l1-1h-1zM168 91zM161 95h1v-1l-1 1zM176 88h-1 1zM165 94v0zM176 93h-1 1zM172 93l-1-1v1h1zM167 95v0zM173 85h-1 1zM171 89v0zM172 87h-1l1 1v-1zM173 91s1 0 0 0c0-1 0-1 0 0zM172 92v1h1l-1-1z"/><path class="st12" d="M160 90h-1l1 1v-1zM176 90v0zM169 95v-1 1zM175 92zM163 89zM161 86h1v-1h-1v1zM175 90v-1l1 1v-1s0-1 0 0h-1v-1l-1 1v-1l-1 1h-1v0h1v1l1-1 1 1zM163 91h1v-1h-1v1zM165 90v-1h-1v1h1zM161 90v1h1v-1h-1zM161 92v1l-1 1h1v-1h1l-1-1zM173 86h1s1 0 0 0v-1l-1 1zM169 90l-1-1v1h1zM151 85h-1 1zM151 91h-1v1h-1v1h2v-1-1zM164 85h1l1 1v-1h1-3zM153 87h0zM164 89h1v-1h-1v1zM161 91v1h1l-1-1zM163 90l-1-1v1h1zM161 90h-1 1zM160 88v0zM155 91h-1v1h1v-1zM155 92l-1 1h1v-1zM152 85h1-2 1zM149 85h1-1zM150 90h-1v1l1-1zM160 92h-1 1zM161 85h-2 2zM163 85v1h1l-1-1h1-1-1 1zM152 92l1-1h-1-1v1h1zM156 97h0zM157 99v0zM152 94l1-1v1l1-1v-1h-1-1v2zM150 90h1l-1-1v-1l1 1 1-1h-1-1v-1 1h-1v2h1zM155 85zM154 85zM150 99v-1-1h1l1-1h1l-1-1h-1v-1 2h-1v0s-1 0 0 0h-1v3h1zM155 101c0 1 0 1 0 0h0zM155 93h2v-1h-1l-1 1zM159 97v-1h-1v1h1zM154 96h-1v1h1v-1zM157 94h-1 1zM149 91zM150 100v-1h-1v1h1zM155 95h1-1zM154 90h-1l1 1v-1z"/><path class="st12" d="M150 95h-1v1l1-1zM155 96v0zM154 94s-1 0 0 0v0zM150 93v1c-1 0 0 0 0 0v-1zM158 95l1-1h-1v1zM152 97zM156 91v-1 1h-1 1zM156 99h1v-1h-1v1zM150 85v1h1v1h1v2s0-1 0 0h-1v0l1 1v0l1-1 1-1h-1 1v1h1v-1-1l1-1h-1v-1h-1v2h-1v1c0-1 0 0 0 0l-1-1h1v-1-1 1h-1l-1-1h-1zM152 103c1 0 1 0 0 0 0 0 0-1 0 0zM159 91v-1l-1 1h1zM154 97v1c1 0 1 0 0 0v-1zM159 93zM158 92v-1h-1v1h1zM158 93s0-1 0 0c-1 0-1 0 0 0zM150 87v-1h-1v1h1zM152 101l-1 1h1v-1zM150 107h1v-1h-1v1h-1l1 1h1v-1h-1zM154 101v0h1-1zM152 106l-1-1v1h1zM154 106l1 1v-1h-1zM154 103v1h1v-1h-1zM156 101v-1 1zM151 94zM156 108zM150 100h-1v1l1-1zM154 103h-1v1l1-1zM155 111s0 1 0 0zM150 105h1v-1h-2v1h1z"/><path class="st12" d="M150 107v-1h-1v1h1zM153 103h1v-1h-1v1zM150 102v1l1-1a1 1 0 00-1-1v1zM155 108v-1h-1l1 1zM149 113v-1 1zM151 99v1h1l1-1h-1-1zM153 106h-1l1 1c-1 0-1 0 0 0v-1zM155 105h1-1zM154 99h-1v1h1l1-1h-1zM154 105v-1h-1v1h1zM152 104v1h1v-1h-1zM153 97v1h1v-1h-1zM150 103h-1v-1 1h1zM151 101s1 0 0 0zM157 108v0zM157 105h-1v1h1v-1zM151 110v-1 1zM153 95v1l1-1h-1zM157 103h-1 1zM150 101v-1 1zM151 98s-1 0 0 0v0h1-1zM153 99v-1 1zM154 114v-1 1zM150 95v-1 1zM150 112v1 1h2l-1-1-1-1 1-1v-1h-2v1l1 1zM150 108l-1 1h1v-1zM152 108h1c1 0 0 0 0 0v-1h-1v1zM151 107h1-1zM153 110h1l-1-1h-1v1h1zM155 109c-1 0 0 0 0 0v1h1v-1h-1zM151 103s0-1 0 0z"/><path class="st12" d="M152 114v1l1-1v-1-1l1 1v-1h-1l1-1h-1v1h-1-1l1 1v1zM149 129v0zM151 109l1-1h-1v1zM157 117v-1h-1v1h1z"/><path class="st12" d="M154 113h-1v1h1v-1zM154 115h1l-1-1v1zM153 122v1c-1 0 0 0 0 0v-1zM156 114v-1 1zM159 120h-1 1zM156 121v0zM158 115s-1 0 0 0v-1 1zM155 120c1 0 0 0 0 0 0-1 0-1 0 0-1 0 0 0 0 0 0 1 0 0 0 0zM156 119h0zM149 131h1v-1l-1 1zM158 124zM153 111v0zM149 127l1-1-1-1v2zM154 122v-1-1l-1 1v-1l-1 1h1v1h1zM150 115zM156 121h1v-1h-1v1zM153 118l1-1v-1l-1 1v1zM151 115v1h1v-1h-1zM158 122h-1 1zM156 117l-1-1v1h1zM156 118c0 1 0 1 0 0h-1 1zM155 113v-1l-1 1h1zM150 119l-1-1v1h1zM151 128h1v-1h-1v1zM155 119v-1l-1 1h1zM153 115v1h1v-1h-1zM154 124v-1 1zM159 118h-1l1 1v-1zM155 115c0 1 0 0 0 0zM157 115h-1 1zM158 116c-1 0-1 0 0 0 0 1 0 0 0 0zM150 122h2v-1l-1-1-1 1v1zM156 112v1h1v-1h-1zM155 123l1 1v-1h-1zM158 118v-1h-1v1h1zM154 111v-1 1zM155 122zM152 111zM155 126l-1-1v1l1 1v-1zM153 127v0zM154 112h0zM153 128v0zM149 121v1l1-1h-1zM155 124v0zM159 114h-1l1 1v-1zM157 111zM157 125v0zM156 112s-1 0 0 0zM158 113c0 1 0 0 0 0zM157 112zM150 105c0 1 0 0 0 0zM159 121zM153 108c1 0 0 0 0 0zM151 124h1v1h2l-1-1-1-1h-1v1c0-1 0 0 0 0zM151 118l-1 1 1 1 1-1 1 1v-1l-1-1h-1z"/><path class="st12" d="M150 117h1v1h1l-1-1c0-1 0-1 0 0l-1-1v-1-1h-1v4l1-1zM150 125h0v-1-1h-1v2h1zM155 118h-1 1zM155 128v-1h-1v1h1zM150 129v-1l-1-1v2h1zM152 132v0zM150 120h-1 1s0 1 0 0zM153 135z"/><path class="st12" d="M151 130h-1 2v-1h-1v-1h-1v1h-1l1 1v-1s0 1 0 0h1v1s0-1 0 0zM151 138zM150 133v-1l-1 1h1zM153 132v-1h-1v1h1zM151 131v0zM149 127zM154 135v0zM153 132h1-1zM151 126s1 0 0 0c0 0 0-1 0 0zM154 130zM151 125h1v1h1v-1h-1v-1l-1 1zM150 138c-1 0 0 0 0 0 0-1 0 0 0 0zM150 140h1v-1 1h-1zM153 128zM150 137v-1s0 1 0 0h-1v1h1zM153 137v-1h-1c0-1 0 0 0 0l1 1zM153 141v-1h-1l1 1zM149 152v-1 1zM152 146h-1v1h1v-1zM153 139v-1h-1v1h1zM153 143zM154 144l-1 1h1v-1zM155 143c-1 0-1 0 0 0v-1 1zM155 139h-1v1l1-1zM150 153zM152 142zM154 146zM149 142v-1h1v-1-1h-1v-1 4c1 0 1 0 0 0zM152 143l-1-1-1 1h2zM153 138v-1h-1l1 1zM150 143l-1 1h1v-1zM149 148v0zM150 138h1v-1h-1v1zM151 151c-1 0-1 0 0 0zM151 149l1 1v-1h-1zM151 140v0zM151 144c0-1 0-1 0 0zM152 144c0 1 0 1 0 0zM154 148zM150 150zM150 135v-1c0-1 0-1 0 0h-1v1h1zM151 137c-1 0-1 0 0 0zM149 146v0zM150 148h1l-1-1v1zM151 150v-1h-1v1h1zM153 142zM152 145l1 1v-1h-1zM149 132zM149 153zM153 148zM150 146h1v-1c0-1 0-1 0 0h-1-1v1h1s0 1 0 0zM152 134v-1h-1v1 1l1-1z"/></g><g><defs><path id="SVGID_1_" d="M160 81h90v83h-90z"/></defs><clipPath id="SVGID_2_"><use xlink:href="#SVGID_1_" overflow="visible"/></clipPath><path d="M215 109s2 12 9 14c0 0 9-22-3-20l-6 6z" clip-path="url(#SVGID_2_)" fill="#fec514"/><g><defs><path id="SVGID_3_" d="M160 81h90v83h-90z"/></defs><clipPath id="SVGID_4_"><use xlink:href="#SVGID_3_" overflow="visible"/></clipPath><g clip-path="url(#SVGID_4_)"><defs><circle id="SVGID_5_" cx="205.9" cy="114.2" r="64.4"/></defs><clipPath id="SVGID_6_"><use xlink:href="#SVGID_5_" overflow="visible"/></clipPath><path d="M211 138h-10c-7 0-14-6-14-14v-12c0-8 7-14 14-14h10c7 0 14 6 14 14v12c0 8-7 14-14 14z" clip-path="url(#SVGID_6_)" fill="#0e2864"/><defs><circle id="SVGID_7_" cx="205.9" cy="114.2" r="64.4"/></defs><clipPath id="SVGID_8_"><use xlink:href="#SVGID_7_" overflow="visible"/></clipPath><path clip-path="url(#SVGID_8_)" fill="#0e2864" d="M197 123h19v29h-19z"/><g><defs><circle id="SVGID_9_" cx="205.9" cy="114.2" r="64.4"/></defs><clipPath id="SVGID_10_"><use xlink:href="#SVGID_9_" overflow="visible"/></clipPath><path d="M218 208h-23a31 31 0 110-62h23a31 31 0 110 62z" clip-path="url(#SVGID_10_)" fill="#ff6a40"/></g><g><defs><circle id="SVGID_11_" cx="205.9" cy="114.2" r="64.4"/></defs><clipPath id="SVGID_12_"><use xlink:href="#SVGID_11_" overflow="visible"/></clipPath><path d="M206 146h-11a31 31 0 100 62h11v-62z" clip-path="url(#SVGID_12_)" fill="#ff8e76"/></g></g></g></g><path class="st5" d="M211 100c0 7-5 12-11 12s-10-5-10-12c0-6 8-11 14-11s7 5 7 11z"/><path class="st5" d="M230 103c0 6-6 10-13 10s-12-4-12-10 7-10 14-10 11 5 11 10zM197 106s-2 13-10 14c0 0-9-21 3-19l7 5z"/><g><path class="st11" d="M114 151h1v-1l-1 1zM97 154zM132 167v-1l-1 1h1zM132 165h1l-1-2-1 1v1h1zM131 171h1l-1-1v1zM122 155zM100 153l1-1-2-1v2h1zM134 180v-1l-1 1h1zM127 160c1 0 0 0 0 0 0-1 0-1 0 0l-1 1 1-1zM130 161v-1c0-1 0 0 0 0s-1 0 0 0v1zM130 174h0s0 1 0 0zM108 151l-1-1v1h1zM104 152v-1 1z"/><circle cx="107" cy="175.8" r="28.2" fill="#1ba9f5"/><path d="M134 185h-11a59 59 0 001-18h10l-1-2h-10c-1-7-3-12-6-16l-6-1c4 2 8 9 9 17h-12v-17h-1-1v17H94c1-8 5-15 9-17l-6 1c-3 4-5 9-6 16H81l-1 2h10a60 60 0 001 18H80l1 3h10c1 6 4 11 6 14l6 2c-4-3-8-9-9-16h12v16h2v-16h12c-1 7-5 13-9 16l6-2c2-3 5-8 6-14h10l1-3zm-28 0H93v-18h13v18zm15 0h-13v-18h13a54 54 0 010 18z" fill="#20377d"/><path class="st21" d="M87 184s0 1 0 0zM88 184l-1 1h1l1-1h-1zM89 183h1v-1-1h-1v2zM88 179l1-1v-1l-1 1v1zM90 184zM102 191v2h1v-1l-1-1zM87 180h-1v1l1-1zM86 184h1l-1-1v1zM89 179zM100 192h1v-1l-1 1zM101 196v-1h-1v1h1zM90 175h-1 1zM86 181v1h1v1h1v-1h-1l-1-1zM101 195h1v-1h-1v1zM86 184v-1 1zM86 182h-1v1h1v-1zM101 191zM100 191zM89 191zM88 193v1h1l1-1h-1v-1h-1v1zM86 175v3h1v0s1 0 0 0v-1-1-1c1 0 0 0 0 0h-1zM89 192v-1h-1l1 1zM98 191zM98 194v-1l-1 1h1zM100 193h-1v-1l-1 1h1v1h1v-1zM101 197v-1 1zM96 193l1-1c1 0 0 0 0 0h-1v1zM86 175h-1l-1 1h1l1-1zM86 188zM86 173v1l1-1h-1zM85 178v1h1l-1-1zM83 179h1c0 1 0 1 0 0h-1zM85 170v1h1v-1h-1zM83 176l1 1v1h1v-1l-1-1h-1zM88 180h-1 1v1l1-1h-1zM105 195zM105 192v1c1 0 0 0 0 0v-1zM110 194l-1-1c-1 0 0 0 0 0h-1v1h2zM109 195h-1v1h1v-1zM109 197v-1h-1v1h1zM103 197h1v-1l-1 1z"/><path class="st21" d="M102 195v1l-1 1v1h2v-1l1-1 1-1h-1-1-1zM104 189h-1 1zM104 191h1v-1h-1v1zM114 198l1-1h-1v1zM115 196v-1l-1 1h1zM116 193v-1h-1v1h1zM113 194v-1c0-1 0 0 0 0l-1 1h1zM111 198v1h-1l1 1v-1h1v-1-1l1 1 1-1-1-1-1 1h-1v1zM110 196v-1 1zM112 196v-1a1 1 0 00-1 0l1 1zM112 193v-1 1zM103 199v-1 1zM84 184v-1-1h1l1-1h-1v-1h-1-1v1 3h1zM83 184l-1 1h2l-1-1zM86 185v-1h-1l-1 1h2zM86 189v-1 1zM90 191h1l-1 1 1 1 1-1v-1h-2zM87 170v1h1v-1h-1zM84 172v2h1v-1h1v-1h-1v0h-1zM85 171zM90 197h1v-1h-1v1zM98 196h1l1-1h-1v-1h-1v1h1l-1 1zM92 197h1v-1-1l-1-1h-1l1 1h-1l1 1v1zM94 197zM101 200l1-1h-1v1zM90 195h1v-1h-1v1zM88 170l1-1h-1v1zM93 194v0zM91 193h-1 1zM115 198v1h1l-1-1zM105 202h-1v1h1v-1zM106 204h-1 1v-1 1zM106 200zM95 200h1l-1-1v1z"/><path class="st21" d="M105 198v1h-1v1l-1-1-1 1v1h1-1v1h1v-1l1-1v1l1 1h1v1-2h-1v-1-1h1v-1h-1zM109 204v-1l-1-1v2h1zM106 196l-1 1v1h1v-2zM102 203zM99 199v1a1 1 0 002 0v-1h-1v-1-1-1l-1 1h0v1h-1v1h1zM98 198v-1-1h-1v-1h-1l2 3zM97 202zM96 192v-1h-1l1 3v-1-1zM110 201l-1-1h1v-1-1h-1l-1-1v2l1 1v2h1v-1z"/><path class="st21" d="M101 201h-1l1 1 1-1h-1zM100 203h-1 1zM101 203zM100 203zM103 202v1h-1l1 1v-1h1l-1-1zM102 189h-1 1zM120 200l-1-1v2h1v-1zM120 197l-1 1h1v-1zM118 201zM124 197v-1l-1 1h-1v1h1v-1h1zM121 196h1c1 0 0 0 0 0h-1zM110 204h1v-1l-1 1zM123 195l-1-1v1h1zM117 195v1l1-1h-1zM112 201h-1l-1 1 1 1 1-1v-1zM111 204l1-1-1 1zM116 197v1h1v-1h-1zM111 203h0zM112 200h0zM114 201l-1 1 2-2h-1v1zM114 199l-1-1v1h1zM114 200h-1 1zM118 194v0zM85 163h-1l1 1v1h1v-1l-1-1zM86 169h1v-1h-1v1zM87 168v-1h-1v1h1zM96 201l-1-1h-1-1a29 29 0 003 1zM84 168h1v-1h-1v1zM83 171h1v-1h1l-1-1h-1v2zM87 161l1 1v-1h-1zM85 162l1-1-1-1-1 1 1 1zM90 162h-1 1zM83 170c-1 0 0 0 0 0zM89 170h0zM87 164v1h1l-1-1zM89 164h0zM89 174v-1 1zM89 175v-1h-1v1h1zM88 167v1l1-1h-1zM88 172v1h1l-1-1zM88 160a1 1 0 00-1-1v1h1zM84 190l-1 1 1 1v-1-1zM84 189v0l-1-1h1-2v2h1l1-1zM86 193l1-1v-1h-2l1-1h-1v1l1 2zM80 181h0zM89 197h1v-1-1h-2l-1 1v-1-1h-1v1l2 1 1 1zM94 198v1l1-1h-1v-1h-1-1v1h-1-1l-1-1 3 2h1l1-1zM82 184v-1-1l-1 1h-1v-1-1h1v-1h1v-1h1v-1a1 1 0 00-1 0v1h-1l-1-1h1v-1h-2v1l1 1c-1 0-1 0 0 0v1 1h-1l1 4 1-1h1zM86 193h-1l1 1v-1zM81 166l-1 1 1-1zM82 164h-1v1h1v-1z"/><path class="st21" d="M79 175v1h2l1 1v1l1-1h-1l1-1-1-1h1l1-1-1-1-1 1-1-1v1h-1-1v1zm2 0h1-1v0zM82 163h0zM81 165zM80 173h1v-1h-1l-1 1h1zM80 170l1 1v-1l1-1v-1l-2-1v3zM81 171v1a1 1 0 001 0l1-1h-1-1z"/></g><path class="st22" d="M115 205s17 5 25-11c8-15-2-25-2-25M97 146s-16-4-24 12 3 25 3 25"/><g><path class="st23" d="M191 165v1h1v-1h-1zM197 165v1h1v-1h-1zM194 165h-1-1v1h2v-1zM198 164v0zM193 167v0zM184 165h0v0zM187 165h-1c0-1 0-1 0 0h1zM195 166v-1 1zM200 165c0-1 0 0 0 0h-1 1zM196 166v0zM194 166v0zM195 166h1-1zM187 166h-1 1zM183 171v-1-1h1v-1h-1v1h-2v1h1l1 1zM181 173h-1c-1 0-1 0 0 0h1zM190 171v1h1v-1h-1zM176 171h1v-1h-1v1zM186 171v0zM186 168v0zM183 174v0zM181 175v0zM195 166v0zM187 167h1v-1h0v-1h-1v2zM184 167l1 1a33 33 0 001 0v-1h-1-1zM194 169v-1h-1v-1 2h1zM182 166v2h1v-1-1l-1-1h2v1h-1l1 1v-1-1h-2v1h-1 1zM189 173v0zM190 170h-1v1h1v-1zM188 168v1l1-1h-1zM187 172h-1v1h1v-1zM192 169c-1 0-1 0 0 0v-1 1z"/><path class="st23" d="M181 167v1l1 1v-1h-1 1l-1-1v-1 1h-1 1zM183 175v1h1l-1-1zM183 172v-1h-1v1h1zM192 171v0zM187 170v1h1l-1-1zM190 169h1-1v-1h-1l1 1zM186 174v-1h-1v1h1zM187 169v-1 1zM184 166h0zM186 166h-1 1zM179 174v-1h-1v1h1zM179 169h1v-1h-1 1v-1l-1 1-1 1h1zM192 172v1h1v-1h-1zM184 173h1-1zM188 170c0-1 0-1 0 0 0 0 1 0 0 0zM184 171h-1l1 1v-1zM183 173h1l-1-1v1zM184 168c0-1 0-1 0 0zM189 165v-1 1zM192 168zM186 175c-1 0-1 0 0 0v0zM190 174h1-1zM182 171v-1h-1v1h1zM188 172zM182 175h-1 1zM189 174v0zM195 168v0zM181 173h1v-1h-1 1l-1 1zM187 175v0zM188 174zM187 174zM191 164c0 1 0 1 0 0zM192 166h-2v1l1 1 1-1v-1zM188 167h1c0 1 0 0 0 0v-1l-1 1zM190 166c1 0 1 0 0 0h1v-1l-1-1v1s-1 0 0 0v1zM184 164l-1 1 1-1zM196 165v-1h-1v1h1zM178 170v2h2v-1h-1 1l-1-1h-1zM181 173v1h1l-1-1zM178 177h0zM177 170zM176 180s1 0 0 0zM184 174zM175 178v-1 1zM175 175l-1 1h1v-1zM178 173v-1l-1 1v1l1-1zM180 174h-1v1h1v-1zM183 175h-1v1h1v-1z"/><path class="st23" d="M171 175l1 1h2l-1-1h3v-1h-1-2l-1 1v-1s1 0 0 0l-1 1zM176 172v-1l-1 1h1zM185 171l1-1v-1h-1v1l-1-1v1h1v1h-1v1h1v-1zM181 172v-1h-1v1h1zM176 174v-1h-1l1 1z"/><path class="st23" d="M170 177h-1v1h1v-1a1 1 0 001 0v2l1-1h-1 1v-1h1s0 1 0 0h1-1-1-1v-1h-1l1-1v-1l-1 1h-1l1 1c-1 0 0 0 0 0v1zM181 175v1h1v-1h-1zM177 175h-1l1 1v-1z"/><path class="st23" d="M171 176v1h1v-1h-1zM179 176h0zM181 170h-1 1zM173 180zM182 171zM177 169zM177 171v1h1v-1h-1zM185 169c-1 0-1 0 0 0 0 0 0-1 0 0zM176 179v-1h-1v1h1zM179 172s1 0 0 0zM176 176v0zM174 178v0zM180 177v0s1 0 0 0zM179 179zM178 176zM177 180l1 1v-1h-1zM170 182h1v-1-1h-1v2zM174 181zM173 181zM181 177zM178 179zM184 166v0zM184 167c0 1 0 0 0 0zM172 173h1-1zM175 180v1l1-1h-1zM171 185s-1 0 0 0c0 0 0 1 0 0 0 0 1 0 0 0zM174 179v0zM176 179h-1l1 1v-1zM174 183zM173 185h1v-1l-1 1zM175 183v1h1v-1h-1zM177 181zM174 182zM176 171v-1l-1 1h1zM173 186zM173 180v-1-1l-1 1h-1v1h1-1l1 1c-1 0 0 0 0 0v-1h1zM163 181v-1l-1 1h1zM164 180h-1 1zM168 179h-1v2h1v-1-1zM173 181h-1v1h1v-1zM177 178v-1h-1v2h1v-1zM163 181v1h1v-1h1l-1-1v1h-1zM167 184l-1-1v1h1zM171 183v-1s-1 0 0 0v1zM175 178v-1h-1v1h1zM171 179l-1-1v1l1 1v-1zM173 174h1v-1h1v-1h-1 1v-1l-1 1h-1v2zM169 188h-1v1h1v-1zM170 187v0zM174 181v-1h-1l1 1zM161 182h1v-1l-1 1zM172 182v0zM173 184v-1h-1l1 1zM162 189v1l1-1h-1zM160 184h-1 1zM172 187v0zM168 187v1l1-1h-1zM176 177h0zM170 179v-1h-1v2l1-1h-1 1zM170 183v-1h-1v-1h-1v1h1l1 1zM169 184v-1l-1 1h1zM168 176l1 1v-1h-1v0zM169 177h-1v1h1v-1z"/><path class="st23" d="M175 173h-1l1 1v-1zM168 182zM168 178h0zM170 186v-1h-1v1h1zM169 187zM174 182h0zM172 185h0zM176 172v1h1v-1h-1zM172 187zM171 183s0 1 0 0h-2v1h3l-1-1zM166 179v1l1-1v-1 1h1l-1-1v-1l-1 1v1zM166 188h-1 1z"/><path class="st23" d="M164 179v1h1v1h1v1l1-1h-1 1l-1-1v-1h-2zM168 186l1-1h-1v1zM167 183v1h1v-1-1l-1-1v2zM170 187h0zM157 188h-1v-1-1h-1v1l-2 1-1 1h-1v1h-1 7c1 0 0 0 0 0l1-1h-1l1-1h-1zM159 184l1-1v2h-1l1 1h1v-1-1-1l-1-1v1h-1v1zM168 185v-1c-1 0-1 0 0 0h-1v1l-1-1v1h-1v1h-1v1h-1v1l1 1v-1h1v-1h1s0 1 0 0v1h1v-1l-1-1h1a1 1 0 000-1h1zM158 184z"/><path class="st23" d="M161 183v1h0l1 1v1h1v-1 1h1v-1-1l1-1h-1v-1l-1 1v1l-1-1h1l-1-1-1 1zM165 190h1-1zM161 186v1l1-1h-1zM166 184h-1v1l1-1zM167 186v0zM169 190h-1 1z"/><path class="st23" d="M161 188l1 1v-1-1-1 1l-1 1v-1h-1l1 1h-1 1zM161 189v1l1-1h-1zM160 190h0zM170 189zM170 184c0 1 0 0 0 0zM157 186v1h1v-1h1v-1h-1-1v1zM167 189h-1-1c0-1 0-1 0 0-1 0 0 0 0 0l-1 1h1l1-1v1h1v-1zM163 189l-1 1h2l-1-1zM165 184l1-1h1v-1h-1-1-1l1 1v1z"/><path class="st23" d="M160 189v-1h-1v-1h1l-1-1v1h-1v2l1 1h-1 2v-1zM157 185l-1 1 1-1z"/></g><g><path class="st12" d="M127 23h0zM134 22h-1 1zM128 26v-1 1h-1 1zM131 23v-1h-1l1 1zM129 22zM127 28zM133 22h-1v1h-1 1v1h1v-1-1zM126 29zM130 24l-1 1h1v-1zM131 25h-1c0 1 0 0 0 0v1h1v-1zM128 28zM136 22zM129 23v-1l-1 1h1zM127 26v-1c0 1 0 1 0 0h-1l1 1zM131 24s0-1 0 0zM130 26h-1 1zM126 24h1v-1l-1 1zM134 23h-1v1l2-1h-1zM127 22h0zM126 28v-1 1zM132 22zM125 22h-1 1zM123 26h0zM125 26zM124 24zM124 25v0zM135 22h-1 2-1zM132 24v1h1l-1-1zM136 23v-1 1zM129 23l1 1v-1h-1zM125 29h-1v1l1-1zM121 23c1 0 0 0 0 0v0zM122 28v0zM121 26c0-1 0-1 0 0zM120 25s0-1 0 0zM118 30c-1 0-1 0 0 0zM123 23v0zM125 23c0-1 0-1 0 0zM111 31h1-1zM114 33h0zM123 22zM120 22zM123 24h0zM113 29v-1 1zM127 22h-1 1zM127 28l-1 1 1-1zM120 27h1l1 1v-1 1l1-1h-1-1c0-1 0-1 0 0h-1zM118 32v-1h-1v1h1zM123 26l1-1h-1v1zM115 31h-1 1l-1-1v2h1v-1zM119 23l-1-1v1h1zM116 34v1h1v-1h-1zM120 32h0zM124 27v-1 1zM119 28h1-1zM116 35h-1v1l1-1zM115 34c-1 0-1 0 0 0zM129 27v-1h-1v1h1-1 1zM120 26v-1l-1 1h1zM123 29h-1 1zM117 33v0zM116 29c0 1 0 1 0 0zM114 36h-1v1l1-1zM112 35zM120 31v-1h-1v2h1v-1zM122 26v-1l-1 1h1zM115 29v0zM125 25h-1 0v1h1v-1zM125 24v0zM117 31h-1 1zM128 24s0 1 0 0h0zM116 27l1 1v-1h-1zM118 28h1-1zM119 27l-1-1v1h1zM118 26h-1 1zM123 29l-1 1h2v-1h-1zM126 28h-1 1zM128 27h-1v1h1v-1zM122 31h-1v1h1v-1zM122 31zM115 28h0zM125 29h0zM129 25v0zM123 24h-1v1l1-1zM126 24v-1 1zM114 27zM118 25zM116 25v-1 1zM127 24zM113 31zM118 29c-1 0 0 0 0 0v1h1v-1c1 0 0 0 0 0h-1v-1h-1l1 1zM120 33v0h-2v1h1v-1h1c0-1 0 0 0 0zM126 27h1l-1-1v-1l-1 1h1v1zM122 30h-1v-1h-1v1h1v1s-1 0 0 0v-1l1 1v-1zM123 28v1l1-1h-1zM116 34h-1 1zM115 26h1l-1-1v1zM114 35v1h1v-1h-1zM107 40v0zM112 29h1v-1h-1v1zM106 41v1-1zM105 41v-1 1c1 0 0 0 0 0zM112 34zM111 30s0-1 0 0zM108 34h-1 1zM115 29h-1 1zM117 29h-1 1zM102 34l-1-1v1h1zM105 35c1 0 1 0 0 0zM105 36l1 1v-1h-1zM110 38h0zM104 37v-1h-1v1h1zM115 28v-1 1zM112 27zM115 30h-1 1zM104 32v-1h-1v1h1zM111 32l1 1h1v-1h-2zM107 36v1l1-1h-1v-1h-1 0v2l1-1zM103 35h1v1h1v-1h-1-1zM110 28v0zM108 39v0zM107 39s1 0 0 0c0-1 0-1 0 0-1 0-1 0 0 0zM104 33c-1 0-1 0 0 0v0zM110 38v-1h-1v1h1zM115 32h-1v1h1v-1zM110 33l-1-1 1 1zM110 38v0zM110 31h1v-1h-1v1zM112 34l1 1-1-1zM106 38v-1 1zM106 33zM101 35h0zM105 40zM102 39h0zM101 38l1-1h-1v1zM110 35h-1-1v1h2v-1zM112 31h0zM101 42h0zM105 33zM102 37h0c0 1 0 1 0 0zM116 31h-1 1zM116 31v0zM106 35v-1 1zM107 31v0zM109 32c0 1 0 1 0 0-1 0-1 0 0 0zM109 31zM104 42h-1 1zM109 30h-1 1zM117 34h0zM111 37v-1h-1v1h1v0zM111 36v1h1v-1h-1zM106 32zM113 37l-1-1v1h1z"/><path class="st12" d="M118 33h1v-1h-1v1zM113 30h1c0-1 0-1 0 0l-1-1v1zM100 39c-1 0 0 0 0 0zM117 30zM105 31v-1 1zM109 29zM107 28v0zM118 31zM101 42zM103 34zM108 33v1h1v-1h-1c1 0 0 0 0 0v-1 1c-1 0 0 0 0 0zM109 37l-1 1v-1h-1v1h1l1 1v-1-1zM117 34v-1-1h-1v1l1 1zM110 36l1-1v1h1v-1h-1v-1h-1c0-1 0-1 0 0l1 1h-1v1zM113 34v1h-1 2-1l1-1h-1zM105 38v-1h-1v1h1zM112 38l1-1-1 1zM107 30l-1-1v1h1zM104 41h1l-1-1h-1c0-1 0 0 0 0h-1v1h2zM106 39v-1h-1v1h1zM98 36h-1 1zM101 43c0 1 0 1 0 0h1l-1-1v1zM91 48v-1h-1 1v1zM94 43zM100 41v-1 1zM108 35zM102 42l1-1h-1v1zM88 48h1-1zM90 41zM99 45h-1-1v2h1l1-1h1v-1h-1zM96 47l-1 1v-1l-1 1v-1h-1v1h1l-1 1h1v-1h1c0 1 0 0 0 0h1v-1zM92 39zM100 43h-1l-1-1v1h-1v1h1l1 1v-1h1v-1zM102 39v-1l-1 1s0-1 0 0h-1 1c-1 0-1 0 0 0l1 1v-1zM98 41h-1v1h1v-1h0zM101 42v-1h-1-1l1 1h1zM94 38v-1-1h-1v2h1zM105 42v-1h-1v1h1zM102 43v-1 2l1-1h-1zM99 36l1-1v-1h-1v2zM98 37l-1 1h1v-1zM96 45l-1-1v2l1-1zM98 40v-1h-1l1 1zM106 41l1-1h-1v1z"/><path class="st12" d="M96 44v1h1l1-1h-1-1zM101 37l1-1h-1v1zM96 43h-1v1h1v-1zM95 38v-1 1zM103 43h0zM105 33v1h0v-1zM104 38v0zM95 36l1 1v-1h-1zM99 38h1l-1-1v1zM96 38v1h1v-1h-1c1 0 1 0 0 0zM103 35l-1-1v1h1zM100 40h-1c0 1 0 1 0 0h1zM100 42v1h1l-1-1zM92 48v1c0-1 0-1 0 0h1l-1-1zM93 43l-1 1h1v-1zM99 43l1-1h-1v1zM95 35h1l-1-1v1zM103 36zM99 39v-1l-1 1h1zM103 42h-1 1zM90 44v1h1v1l1-1h-1l1-1h-1-1zM91 49h-1 1zM108 40zM102 39h1v-1l-1 1zM103 37v1l1-1h-1zM101 41v1h1v-1h-1zM97 42h-1l1 1v-1zM103 42s0-1 0 0c1 0 1 0 0 0zM95 39zM97 34h1-1zM94 46v-1 1zM89 41h1v-1l1 1v-1h-2v1zM105 40h-1 1zM100 36l-1 1h1v-1zM94 41h1-1zM100 34h-1 1zM88 45zM92 50h0zM93 39v-1 1zM92 37zM105 38zM102 32s-1 0 0 0zM101 34s-1 0 0 0zM102 33h-1 1zM94 42h-1 1s0-1 0 0zM95 41h1v-1-1h-1v1 1zM97 40v0zM95 41v1h1v-1h-1zM101 44v1l1-1h-1zM92 42v-1 1zM93 43v-1 1zM92 40v1h1v-1h-1zM94 46h1-1zM94 47v-1h-2-1 1v1h2zM86 53h-1l1 1v-1zM88 41h-1 1zM90 49l1-1h-1v1h-1 1zM84 46h-1v1h1v-1zM79 52l1-1h-1 0v-1 1h-1 1v1zM81 55v-1h-1v1h-1v1h1l1-1s0 1 0 0zM91 44v-1h-1 1v1zM83 48v-1 1zM89 46h0zM95 42h-1 1v-1 1zM92 47h-1 1zM97 42zM79 45zM86 52h1v-1h1v-1 0h-2l-1 1 1 1zM81 49h0zM82 43h-1 1zM89 49l-1-1h-1-1v1h1v1h1v-1h-1 2zM88 46h-2v1h2v-1zM89 47h1l-1-1v1zM87 53v-1h-1v1h1zM83 42h1v-1h-1v1zM92 49h-1v-1 2h1v-1zM88 43l-1-1v1h1zM85 49h-1-1v1h1l1-1zM87 45l1-1h-1v1zM89 51v1h1l-1-1zM96 47v-1h-1v1h1zM85 50h1v-1h-1c1 0 0 0 0 0v1zM91 42s0 1 0 0h1-1zM84 48h1-1zM85 43v-1l-1 1h1zM84 51h-1v1h1v-1zM89 51h1-1c0-1 0 0 0 0zM84 56zM93 45h1v-1l-1 1zM81 47v0s-1 0 0 0zM86 41h-1 1zM89 43v0zM93 49v1l1-1h-1zM86 43v-1 1zM94 47h1v-1 1h-1zM89 46v-1l-1 1h1zM89 48h0s0 1 0 0zM89 48v-1l-1 1h1zM97 45h-1v2l1-1h-1 1v-1zM86 40v-1h-1l1 1zM93 42zM88 44h0zM92 48h-1 1zM79 48zM80 48c0 1 0 1 0 0zM82 49h0zM78 55v-1h-1v1h1zM85 51s0 1 0 0v-1c-1 0-1 0 0 0h-1v1h1s-1 0 0 0zM92 44v1h0v-1zM92 43h-1 1s1 0 0 0zM86 47h-1l1 1v-1zM92 48h1v-1h-1v1zM85 44v-1h-1v1h1zM81 52h1v-1h-1 1l-1-1v1l-1 1h2-1zM94 40v-1 1zM88 40v0zM79 45v-1l-1 1h1zM94 46zM89 42h1-1zM78 47zM84 45v0zM90 40v-1 1zM77 48v0zM86 54zM84 54h-1 1zM82 51l1-1h-1 0v1zM85 53h-1l1-1h-1-1v1h1s0 1 0 0h1zM80 54h0zM79 54l1-1h-1v1zM83 43h-1 1zM82 41c1 0 0 0 0 0zM95 44h-1 1zM77 51zM100 44h1-1zM92 38zM91 40v-1 1zM92 39zM83 46zM85 45v-1h-1v1h1zM86 46h1v-1h-1v1zM85 47v-1h-1l1 1zM91 50h-1v-1l-1 1h1v1h1v-1zM83 55v-1h-1v1 1l1-1h-1 1zM81 46h1v-1h-1v1zM82 47zM82 45h1v-1h-1v1zM80 44v0h-1 1zM85 55h-1 1zM83 50v0z"/><path class="st12" d="M89 52h-1v-1h-1v1h1v1h1v-1zM77 52v-1h1v-1h-1-1v2h1zM82 54h1v-1h-1v1zM78 48c0 1 0 0 0 0-1 0-1 0 0 0zM70 51l1-1h-1v1h-1 1zM77 54v0zM82 48c0 1 0 0 0 0v-1l-1 1h1c-1 0 0 0 0 0zM74 50h-1 1zM75 53h-1 1zM81 50h1l-1-1v1zM77 44h0zM75 46zM85 53v-1 1zM77 52v0zM77 45h-1 1zM84 51v-1 1zM74 55v-1h-1v1 1h1v-1zM68 54h-1v-1 2h1v-1zM81 53zM81 53h-1 0v1h1v-1-1 1zM79 54v-1h-1-1l1 1h1zM70 49h1v0l-1-1v1zM71 52c-1 0 0 0 0 0v1l1-1h-1 0zM72 54v-1h-1v1h1zM79 49h1-1s0-1 0 0h-1 1zM78 46h1-1zM83 55v1l1-1h-1zM73 49v-1l-1 1h1zM78 52v1h1l-1-1zM78 56zM74 45h1v-1h-1v1zM76 49h1v-1l-1 1zM68 52h0zM72 52l1-1h-1v1zM80 53v-1h-1v1h1zM70 53c0 1 0 1 0 0v1l1-1h-1zM73 47c0-1 0 0 0 0zM79 50h-1 1zM73 53h0zM76 54v0zM79 47h0v0zM80 50h1v-1l-1 1zM67 51c1 0 0 0 0 0 0 1 0 0 0 0zM74 48h1l-1-1v1zM72 52h0zM78 53v-1l-1 1h1zM85 54h-1 1zM87 53v1l1-1h-1zM75 50h0zM75 48v0zM74 49h0zM76 53zM78 52zM69 54v1h1l-1-1zM73 45zM69 50v-1h-1v1h1zM78 50c-1 0 0 0 0 0s0-1 0 0zM72 50s-1 0 0 0zM77 46h-1 1zM85 51zM82 47h-1 1zM70 48zM83 46h1l-1-1v1zM68 56zM77 48zM81 44v-1h-1v1h1zM88 50zM80 47zM71 46v-1 1zM84 48s0 1 0 0zM71 47zM71 46zM70 55v1h1v-1h-1zM73 55h-1l1-1h-1v1h1zM78 55h-1v1h1v-1l1 1v-1h-1zM75 54h1v-1h-1v1c-1 0-1 0 0 0v1h1l-1-1zM62 54v-1l-1 1h1zM64 49v0zM66 53c0 1 0 0 0 0zM60 53zM65 54h-1 1zM63 53h0zM67 50v-1 1zM66 54v1h-1 1v0h1l-1-1zM64 52l1 1v-1h-1zM75 52v-1c0 1 0 1 0 0h0v-1h-1v2h1zM63 55v1h1l-1-1zM66 51c1 0 0 0 0 0zM62 55h-1 1zM63 54v-1 1zM60 55h-1l1 1v-1zM64 55v1h1l-1-1zM68 53h-1 1zM63 51v-1 1zM61 54h-1 1zM61 51v0zM73 56h0zM58 55zM67 52zM62 53v-1 1zM66 54h0zM70 53v-1h-1l1 1zM70 54c0 1 0 0 0 0zM75 56zM59 51v0zM57 55zM68 50h0zM58 56zM58 53zM72 50zM57 55zM65 51z"/><path class="st12" d="M69 55v-1s1 0 0 0v-1l-1 1 1 1h-1v1l1-1v0c0-1 0 0 0 0zM63 54v0zM52 55h0zM56 55h-1 1c0 1 0 0 0 0zM52 56h-1 1zM57 56v-1 1zM60 56z"/></g><g><defs><circle id="SVGID_13_" cx="108.2" cy="60.6" r="49.1"/></defs><clipPath id="SVGID_14_"><use xlink:href="#SVGID_13_" overflow="visible"/></clipPath><circle cx="96" cy="56.5" r="5.2" clip-path="url(#SVGID_14_)" fill="#00c2b3"/><defs><circle id="SVGID_15_" cx="108.2" cy="60.6" r="49.1"/></defs><clipPath id="SVGID_16_"><use xlink:href="#SVGID_15_" overflow="visible"/></clipPath><circle cx="121.1" cy="55.9" r="5.2" clip-path="url(#SVGID_16_)" fill="#00c2b3"/><defs><circle id="SVGID_17_" cx="108.2" cy="60.6" r="49.1"/></defs><clipPath id="SVGID_18_"><use xlink:href="#SVGID_17_" overflow="visible"/></clipPath><path d="M110 73h-4c-6 0-10-5-10-11V50c0-6 4-11 10-11h4c6 0 11 5 11 11v12c0 6-5 11-11 11z" clip-path="url(#SVGID_18_)" fill="#3a5d9d"/><defs><circle id="SVGID_19_" cx="108.2" cy="60.6" r="49.1"/></defs><clipPath id="SVGID_20_"><use xlink:href="#SVGID_19_" overflow="visible"/></clipPath><path clip-path="url(#SVGID_20_)" fill="#3a5d9d" d="M101 67h15v22h-15z"/><defs><circle id="SVGID_21_" cx="108.2" cy="60.6" r="49.1"/></defs><clipPath id="SVGID_22_"><use xlink:href="#SVGID_21_" overflow="visible"/></clipPath><path d="M117 132h-17c-13 0-24-10-24-23s11-24 24-24h17c13 0 24 11 24 24s-11 23-24 23z" clip-path="url(#SVGID_22_)" fill="#ff3799"/><defs><circle id="SVGID_23_" cx="108.2" cy="60.6" r="49.1"/></defs><clipPath id="SVGID_24_"><use xlink:href="#SVGID_23_" overflow="visible"/></clipPath><circle cx="103.4" cy="28.7" r="5.2" clip-path="url(#SVGID_24_)" fill="#00c2b3"/><defs><circle id="SVGID_25_" cx="108.2" cy="60.6" r="49.1"/></defs><clipPath id="SVGID_26_"><use xlink:href="#SVGID_25_" overflow="visible"/></clipPath><circle cx="109.9" cy="40.3" r="5.2" clip-path="url(#SVGID_26_)" fill="#00c2b3"/><defs><circle id="SVGID_27_" cx="108.2" cy="60.6" r="49.1"/></defs><clipPath id="SVGID_28_"><use xlink:href="#SVGID_27_" overflow="visible"/></clipPath><circle cx="115.6" cy="36.6" r="5.2" clip-path="url(#SVGID_28_)" fill="#00c2b3"/><g><defs><circle id="SVGID_29_" cx="108.2" cy="60.6" r="49.1"/></defs><clipPath id="SVGID_30_"><use xlink:href="#SVGID_29_" overflow="visible"/></clipPath><circle cx="111.3" cy="32.3" r="5.2" clip-path="url(#SVGID_30_)" fill="#00c2b3"/></g><g><defs><circle id="SVGID_31_" cx="108.2" cy="60.6" r="49.1"/></defs><clipPath id="SVGID_32_"><use xlink:href="#SVGID_31_" overflow="visible"/></clipPath><circle cx="107.7" cy="36.6" r="5.2" clip-path="url(#SVGID_32_)" fill="#00c2b3"/></g><g><defs><circle id="SVGID_33_" cx="108.2" cy="60.6" r="49.1"/></defs><clipPath id="SVGID_34_"><use xlink:href="#SVGID_33_" overflow="visible"/></clipPath><circle cx="100.9" cy="36.6" r="5.2" clip-path="url(#SVGID_34_)" fill="#00c2b3"/></g><g><defs><circle id="SVGID_35_" cx="108.2" cy="60.6" r="49.1"/></defs><clipPath id="SVGID_36_"><use xlink:href="#SVGID_35_" overflow="visible"/></clipPath><circle cx="124.5" cy="39.6" r="5.2" clip-path="url(#SVGID_36_)" fill="#00c2b3"/></g><g><defs><circle id="SVGID_37_" cx="108.2" cy="60.6" r="49.1"/></defs><clipPath id="SVGID_38_"><use xlink:href="#SVGID_37_" overflow="visible"/></clipPath><circle cx="103.7" cy="41.1" r="5.2" clip-path="url(#SVGID_38_)" fill="#00c2b3"/></g><g><defs><circle id="SVGID_39_" cx="108.2" cy="60.6" r="49.1"/></defs><clipPath id="SVGID_40_"><use xlink:href="#SVGID_39_" overflow="visible"/></clipPath><circle cx="110.2" cy="47.6" r="5.2" clip-path="url(#SVGID_40_)" fill="#00c2b3"/></g><g><defs><circle id="SVGID_41_" cx="108.2" cy="60.6" r="49.1"/></defs><clipPath id="SVGID_42_"><use xlink:href="#SVGID_41_" overflow="visible"/></clipPath><circle cx="118.6" cy="47.6" r="5.2" clip-path="url(#SVGID_42_)" fill="#00c2b3"/></g><g><defs><circle id="SVGID_43_" cx="108.2" cy="60.6" r="49.1"/></defs><clipPath id="SVGID_44_"><use xlink:href="#SVGID_43_" overflow="visible"/></clipPath><circle cx="125.3" cy="47.9" r="5.2" clip-path="url(#SVGID_44_)" fill="#00c2b3"/></g><g><defs><circle id="SVGID_45_" cx="108.2" cy="60.6" r="49.1"/></defs><clipPath id="SVGID_46_"><use xlink:href="#SVGID_45_" overflow="visible"/></clipPath><circle cx="118.6" cy="41.9" r="5.2" clip-path="url(#SVGID_46_)" fill="#00c2b3"/></g><g><defs><circle id="SVGID_47_" cx="108.2" cy="60.6" r="49.1"/></defs><clipPath id="SVGID_48_"><use xlink:href="#SVGID_47_" overflow="visible"/></clipPath><circle cx="119.2" cy="32.6" r="5.2" clip-path="url(#SVGID_48_)" fill="#00c2b3"/></g><g><defs><circle id="SVGID_49_" cx="108.2" cy="60.6" r="49.1"/></defs><clipPath id="SVGID_50_"><use xlink:href="#SVGID_49_" overflow="visible"/></clipPath><circle cx="95.3" cy="33.8" r="5.2" clip-path="url(#SVGID_50_)" fill="#00c2b3"/></g><g><defs><circle id="SVGID_51_" cx="108.2" cy="60.6" r="49.1"/></defs><clipPath id="SVGID_52_"><use xlink:href="#SVGID_51_" overflow="visible"/></clipPath><circle cx="94.8" cy="49" r="5.2" clip-path="url(#SVGID_52_)" fill="#00c2b3"/></g><g><defs><circle id="SVGID_53_" cx="108.2" cy="60.6" r="49.1"/></defs><clipPath id="SVGID_54_"><use xlink:href="#SVGID_53_" overflow="visible"/></clipPath><circle cx="90.9" cy="49.9" r="5.2" clip-path="url(#SVGID_54_)" fill="#00c2b3"/></g><g><defs><circle id="SVGID_55_" cx="108.2" cy="60.6" r="49.1"/></defs><clipPath id="SVGID_56_"><use xlink:href="#SVGID_55_" overflow="visible"/></clipPath><circle cx="97.5" cy="41.9" r="5.2" clip-path="url(#SVGID_56_)" fill="#00c2b3"/></g><g><defs><circle id="SVGID_57_" cx="108.2" cy="60.6" r="49.1"/></defs><clipPath id="SVGID_58_"><use xlink:href="#SVGID_57_" overflow="visible"/></clipPath><circle cx="92.8" cy="41.9" r="5.2" clip-path="url(#SVGID_58_)" fill="#00c2b3"/></g><g><defs><circle id="SVGID_59_" cx="108.2" cy="60.6" r="49.1"/></defs><clipPath id="SVGID_60_"><use xlink:href="#SVGID_59_" overflow="visible"/></clipPath><path d="M109 85h-9c-13 0-24 11-24 24s11 23 24 23h8V85z" clip-path="url(#SVGID_60_)" fill="#ff87c7"/></g></g><g><path class="st11" d="M82 58c0 8-4 12-4 12l4 12-12-3s-5 4-13 4a25 25 0 1125-25z"/><circle class="st48" cx="44.1" cy="58.4" r="3.4"/><circle class="st48" cx="57" cy="58.6" r="3.4"/><circle class="st48" cx="70" cy="58.6" r="3.4"/></g></svg>