<?xml version="1.0" encoding="UTF-8"?>
<svg width="443px" height="425px" viewBox="0 0 443 425" version="1.1" xmlns="http://www.w3.org/2000/svg" xmlns:xlink="http://www.w3.org/1999/xlink">
    <!-- Generator: Sketch 52.5 (67469) - http://www.bohemiancoding.com/sketch -->
    <title>logo_uptuan</title>
    <desc>Created with Sketch.</desc>
    <g id="Page-1" stroke="none" stroke-width="1" fill="none" fill-rule="evenodd">
        <g id="logo_uptuan">
            <path d="M10.3497825,300.295091 C3.62714873,278.268771 2.84217094e-14,254.807812 2.84217094e-14,230.465398 C2.84217094e-14,103.182873 99.1689279,-2.84217094e-14 221.5,-2.84217094e-14 C343.831072,-2.84217094e-14 443,103.182873 443,230.465398 C443,255.304505 439.223321,279.225819 432.234841,301.641597 C395.930517,238.698546 314.960442,194.885813 220.899729,194.885813 C127.51121,194.885813 47.026896,238.074578 10.3497825,300.295091 Z" id="Combined-Shape" fill="#F04F98"></path>
            <path d="M361.322345,275.307034 C362.42616,282.092439 363,289.055736 363,296.153061 C363,367.313261 305.313261,425 234.153061,425 L204.846939,425 C133.686739,425 76,367.313261 76,296.153061 C76,289.322427 76.5315251,282.615937 77.555471,276.072695 C116.8706,249.079027 166.305065,233 220,233 C273.185301,233 322.190622,248.775254 361.322345,275.307034 Z" id="Combined-Shape" fill="#FEC516"></path>
            <path d="M363.074067,232.981014 C323.823374,209.105458 274.485868,194.885813 220.899729,194.885813 C166.731772,194.885813 116.905208,209.415917 77.4504576,233.762119 C84.1986832,160.802506 145.578022,103.678201 220.299458,103.678201 C294.754029,103.678201 355.961635,160.395201 363.074065,232.98099 Z" id="Combined-Shape" fill="#353843"></path>
        </g>
    </g>
</svg>