<svg width="313" height="461" viewBox="0 0 313 461" fill="none" xmlns="http://www.w3.org/2000/svg">
<g clip-path="url(#clip0)">
<path fill-rule="evenodd" clip-rule="evenodd" d="M294.009 184.137C456.386 184.137 588.018 315.77 588.018 478.146C588.018 640.523 456.386 772.156 294.009 772.156C131.632 772.156 0 640.523 0 478.146C0 315.77 131.632 184.137 294.009 184.137ZM294.009 384.552C242.318 384.552 200.415 426.456 200.415 478.146C200.415 529.837 242.318 571.741 294.009 571.741C345.7 571.741 387.604 529.837 387.604 478.146C387.604 426.456 345.7 384.552 294.009 384.552Z" fill="#F5F7FA"/>
<path fill-rule="evenodd" clip-rule="evenodd" d="M284.345 56.462H269.085V41.202H284.345V56.462Z" fill="#E6EBF2"/>
<path fill-rule="evenodd" clip-rule="evenodd" d="M284.345 15.7688L269.085 15.7688V0.508789L284.345 0.508789V15.7688Z" fill="#E6EBF2"/>
<path fill-rule="evenodd" clip-rule="evenodd" d="M284.345 97.1554H269.085V81.8954H284.345V97.1554Z" fill="#E6EBF2"/>
<path fill-rule="evenodd" clip-rule="evenodd" d="M284.345 137.849H269.085V122.589H284.345V137.849Z" fill="#E6EBF2"/>
<path fill-rule="evenodd" clip-rule="evenodd" d="M284.345 177.525H269.085V162.265H284.345V177.525Z" fill="#E6EBF2"/>
<path fill-rule="evenodd" clip-rule="evenodd" d="M284.345 219.235H269.085V203.975H284.345V219.235Z" fill="#E6EBF2"/>
<path fill-rule="evenodd" clip-rule="evenodd" d="M284.345 260.946H269.085V245.686H284.345V260.946Z" fill="#E6EBF2"/>
<path fill-rule="evenodd" clip-rule="evenodd" d="M284.345 299.605H269.085V284.345H284.345V299.605Z" fill="#E6EBF2"/>
<path fill-rule="evenodd" clip-rule="evenodd" d="M243.651 97.1554H228.391V81.8954H243.651V97.1554Z" fill="#E6EBF2"/>
<path fill-rule="evenodd" clip-rule="evenodd" d="M243.651 56.462H228.391V41.202H243.651V56.462Z" fill="#E6EBF2"/>
<path fill-rule="evenodd" clip-rule="evenodd" d="M243.651 137.849H228.391V122.589H243.651V137.849Z" fill="#E6EBF2"/>
<path fill-rule="evenodd" clip-rule="evenodd" d="M243.651 178.542H228.391V163.282H243.651V178.542Z" fill="#E6EBF2"/>
<path fill-rule="evenodd" clip-rule="evenodd" d="M243.651 218.218H228.391V202.958H243.651V218.218Z" fill="#E6EBF2"/>
<path fill-rule="evenodd" clip-rule="evenodd" d="M243.651 259.929H228.391V244.669H243.651V259.929Z" fill="#E6EBF2"/>
<path fill-rule="evenodd" clip-rule="evenodd" d="M243.651 301.639H228.391V286.379H243.651V301.639Z" fill="#E6EBF2"/>
<path fill-rule="evenodd" clip-rule="evenodd" d="M243.651 340.298H228.391V325.038H243.651V340.298Z" fill="#E6EBF2"/>
<path fill-rule="evenodd" clip-rule="evenodd" d="M202.958 137.849H187.698V122.589H202.958V137.849Z" fill="#E6EBF2"/>
<path fill-rule="evenodd" clip-rule="evenodd" d="M202.958 97.1554H187.698V81.8954H202.958V97.1554Z" fill="#E6EBF2"/>
<path fill-rule="evenodd" clip-rule="evenodd" d="M202.958 178.542H187.698V163.282H202.958V178.542Z" fill="#E6EBF2"/>
<path fill-rule="evenodd" clip-rule="evenodd" d="M202.958 219.235H187.698V203.975H202.958V219.235Z" fill="#E6EBF2"/>
<path fill-rule="evenodd" clip-rule="evenodd" d="M202.958 258.911H187.698V243.651H202.958V258.911Z" fill="#E6EBF2"/>
<path fill-rule="evenodd" clip-rule="evenodd" d="M202.958 300.622H187.698V285.362H202.958V300.622Z" fill="#E6EBF2"/>
<path fill-rule="evenodd" clip-rule="evenodd" d="M202.958 342.333H187.698V327.073H202.958V342.333Z" fill="#E6EBF2"/>
<path fill-rule="evenodd" clip-rule="evenodd" d="M202.958 380.991H187.698V365.731H202.958V380.991Z" fill="#E6EBF2"/>
</g>
<defs>
<clipPath id="clip0">
<rect width="588.018" height="772.156" fill="white"/>
</clipPath>
</defs>
</svg>
