<?xml version="1.0" encoding="UTF-8"?>
<svg width="158px" height="158px" viewBox="0 0 158 158" version="1.1" xmlns="http://www.w3.org/2000/svg" xmlns:xlink="http://www.w3.org/1999/xlink">
    <!-- Generator: Sketch 52.5 (67469) - http://www.bohemiancoding.com/sketch -->
    <title>copy</title>
    <desc>Created with Sketch.</desc>
    <g id="Page-1" stroke="none" stroke-width="1" fill="none" fill-rule="evenodd">
        <g id="copy" transform="translate(0.875000, 0.875000)" fill="#969799">
            <path d="M110.593262,156.204834 L23.3032227,156.204834 C10.4785156,156.204834 0.0433349609,145.771484 0.0433349609,132.946777 L0.0433349609,45.6585693 C0.0433349609,32.8338623 10.4766846,22.3986816 23.3032227,22.3986816 L110.591431,22.3986816 C123.416138,22.3986816 133.851318,32.8338623 133.851318,45.6585693 L133.851318,132.946777 C133.851318,145.771484 123.417969,156.204834 110.593262,156.204834 Z M23.3032227,33.7805176 C16.75354,33.7805176 11.427002,39.1088867 11.427002,45.6585693 L11.427002,132.946777 C11.427002,139.49646 16.7553711,144.822998 23.3032227,144.822998 L110.591431,144.822998 C117.141113,144.822998 122.467651,139.49646 122.467651,132.946777 L122.467651,45.6585693 C122.467651,39.1088867 117.139282,33.7805176 110.591431,33.7805176 L23.3032227,33.7805176 Z" id="Shape" fill-rule="nonzero"></path>
            <path d="M156.204834,105.806885 L156.204834,25.7989502 C156.204834,11.5753174 144.674683,0.0451660156 130.45105,0.0451660156 L45.6933594,0.0451660156 C42.5494385,0.0451660156 40.0024414,2.59399414 40.0024414,5.73608398 C40.0024414,8.88000488 42.5512695,11.427002 45.6933594,11.427002 L130.45105,11.427002 C138.388672,11.427002 144.821167,17.8613281 144.821167,25.7971191 L144.821167,109.01123 C144.821167,112.155151 147.369995,114.702148 150.512085,114.702148 C153.656006,114.702148 156.203003,112.15332 156.203003,109.01123 L156.203003,105.806885 L156.204834,105.806885 Z" id="Path"></path>
        </g>
    </g>
</svg>